<svg width="158" height="123" viewBox="0 0 158 123" fill="none" xmlns="http://www.w3.org/2000/svg">
<mask id="path-1-inside-1" fill="white">
<path fill-rule="evenodd" clip-rule="evenodd" d="M134.946 19.0292L158 0H0L47 35.8068L9 122.989L100.617 47.3657L87.5118 33.0001L79.9714 24.7342L91.1001 23.5794L134.946 19.0292ZM122.408 29.3787L98.6405 31.8452L107.566 41.6295L122.408 29.3787Z"/>
</mask>
<path fill-rule="evenodd" clip-rule="evenodd" d="M134.946 19.0292L158 0H0L47 35.8068L9 122.989L100.617 47.3657L87.5118 33.0001L79.9714 24.7342L91.1001 23.5794L134.946 19.0292ZM122.408 29.3787L98.6405 31.8452L107.566 41.6295L122.408 29.3787Z" fill="#00D1FF"/>
<path d="M158 0L161.819 4.62727L174.694 -6H158V0ZM134.946 19.0292L135.566 24.9972L137.368 24.8101L138.766 23.6565L134.946 19.0292ZM0 0V-6H-17.7764L-3.63609 4.77272L0 0ZM47 35.8068L52.5002 38.2042L54.3817 33.8877L50.6361 31.0341L47 35.8068ZM9 122.989L3.49977 120.591L12.8195 127.616L9 122.989ZM100.617 47.3657L104.436 51.993L109.298 47.9797L105.049 43.3221L100.617 47.3657ZM87.5118 33.0001L83.0791 37.0437L83.0791 37.0437L87.5118 33.0001ZM79.9714 24.7342L79.3521 18.7663L67.5254 19.9936L75.5387 28.7779L79.9714 24.7342ZM91.1001 23.5794L91.7194 29.5473L91.7194 29.5473L91.1001 23.5794ZM122.408 29.3787L126.227 34.006L141.548 21.3603L121.789 23.4108L122.408 29.3787ZM98.6405 31.8452L98.0212 25.8772L86.1945 27.1045L94.2078 35.8888L98.6405 31.8452ZM107.566 41.6295L103.133 45.6732L106.982 49.8918L111.386 46.2568L107.566 41.6295ZM154.181 -4.62727L131.127 14.4019L138.766 23.6565L161.819 4.62727L154.181 -4.62727ZM0 6H158V-6H0V6ZM50.6361 31.0341L3.63609 -4.77272L-3.63609 4.77272L43.3639 40.5795L50.6361 31.0341ZM14.5002 125.386L52.5002 38.2042L41.4998 33.4094L3.49977 120.591L14.5002 125.386ZM96.7972 42.7385L5.18053 118.361L12.8195 127.616L104.436 51.993L96.7972 42.7385ZM83.0791 37.0437L96.184 51.4094L105.049 43.3221L91.9445 28.9564L83.0791 37.0437ZM75.5387 28.7779L83.0791 37.0437L91.9445 28.9564L84.4041 20.6906L75.5387 28.7779ZM90.4808 17.6114L79.3521 18.7663L80.5908 30.7022L91.7194 29.5473L90.4808 17.6114ZM134.327 13.0613L90.4808 17.6114L91.7194 29.5473L135.566 24.9972L134.327 13.0613ZM121.789 23.4108L98.0212 25.8772L99.2598 37.8131L123.027 35.3467L121.789 23.4108ZM94.2078 35.8888L103.133 45.6732L111.999 37.5858L103.073 27.8015L94.2078 35.8888ZM118.588 24.7514L103.747 37.0022L111.386 46.2568L126.227 34.006L118.588 24.7514Z" fill="black" mask="url(#path-1-inside-1)"/>
</svg>
