<svg width="158" height="123" viewBox="0 0 158 123" fill="none" xmlns="http://www.w3.org/2000/svg">
<g style="mix-blend-mode:color-burn">
<path d="M35.5063 105.245L33.2733 107.092L38.0362 116.21L35.0404 118.688L30.2774 109.57L28.0721 111.394L27.4498 110.134L34.8701 103.995L35.5063 105.245ZM44.2139 96.2661L50.0531 91.436L50.7031 92.6736L47.8737 95.0141L49.5055 98.1729L51.8772 96.211L52.5158 97.4348L50.144 99.3967L51.9613 102.893L54.7907 100.552L55.4661 101.792L49.6269 106.622L44.2139 96.2661ZM72.1034 86.7682C71.964 87.0704 71.8154 87.3802 71.6575 87.6977C71.5012 87.9982 71.3188 88.3049 71.1103 88.6176C70.894 88.921 70.6386 89.2335 70.344 89.5551C70.0586 89.869 69.7218 90.1866 69.3334 90.5079C68.0944 91.5328 66.9079 92.047 65.774 92.0506C64.6493 92.0465 63.5516 91.3972 62.4808 90.1027C61.8612 89.3538 61.3955 88.5554 61.0836 87.7077C60.764 86.8507 60.6281 85.9898 60.6758 85.125C60.7159 84.2509 60.9502 83.3952 61.3788 82.5578C61.8075 81.7205 62.4517 80.9461 63.3117 80.2348C63.7185 79.8983 64.1113 79.6201 64.4901 79.4002C64.8781 79.1727 65.2444 78.9942 65.5891 78.8649C65.9353 78.7186 66.2568 78.6084 66.5536 78.5342C66.8597 78.4523 67.1388 78.385 67.3909 78.3321L69.0256 81.3249L66.5291 83.3901C66.4618 83.2899 66.3716 83.1621 66.2585 83.0065C66.1546 82.8433 66.0461 82.6838 65.933 82.5283C65.8122 82.3634 65.6952 82.2032 65.5821 82.0476C65.469 81.892 65.3703 81.7634 65.2862 81.6617C65.225 81.5877 65.1516 81.5083 65.0658 81.4235C64.9724 81.3294 64.869 81.2514 64.7555 81.1896C64.6421 81.1277 64.5208 81.1034 64.3917 81.1168C64.2642 81.1133 64.1357 81.165 64.0062 81.2721C63.7658 81.471 63.628 81.7563 63.5929 82.128C63.5593 82.4828 63.6016 82.8916 63.7198 83.3545C63.8303 83.8082 63.9976 84.2928 64.2216 84.8083C64.4455 85.3238 64.6957 85.8333 64.9719 86.3367C65.2498 86.8232 65.5377 87.2937 65.8357 87.748C66.1429 88.1947 66.4265 88.5752 66.6866 88.8896C66.7631 88.9821 66.8633 89.0938 66.9873 89.2249C67.1113 89.3559 67.2499 89.467 67.4032 89.5582C67.5565 89.6495 67.7177 89.703 67.8866 89.719C68.0648 89.7274 68.2371 89.6627 68.4036 89.525C68.6902 89.2879 68.8223 88.8827 68.7998 88.3096C68.7696 87.7271 68.4776 86.8941 67.9238 85.8104L70.4897 83.6879L72.1034 86.7682ZM89.9168 73.2943L86.9209 75.7725L84.5062 71.159L82.8003 72.5702L85.215 77.1837L82.2191 79.6619L76.8061 69.3057L79.8158 66.8161L82.1641 71.321L83.8562 69.9213L81.5079 65.4164L84.5315 62.9152L89.9168 73.2943Z" fill="white"/>
<path d="M35.5063 105.245L36.1437 106.015L36.7609 105.505L36.3974 104.791L35.5063 105.245ZM33.2733 107.092L32.6359 106.321L32.0121 106.837L32.3869 107.555L33.2733 107.092ZM38.0362 116.21L38.6736 116.981L39.2974 116.465L38.9226 115.747L38.0362 116.21ZM35.0404 118.688L34.154 119.151L34.7259 120.246L35.6777 119.459L35.0404 118.688ZM30.2774 109.57L31.1638 109.107L30.5918 108.012L29.64 108.799L30.2774 109.57ZM28.0721 111.394L27.1754 111.837L27.7352 112.971L28.7095 112.165L28.0721 111.394ZM27.4498 110.134L26.8124 109.363L26.2031 109.867L26.5531 110.576L27.4498 110.134ZM34.8701 103.995L35.7612 103.542L35.1946 102.429L34.2327 103.225L34.8701 103.995ZM34.8689 104.474L32.6359 106.321L33.9106 107.862L36.1437 106.015L34.8689 104.474ZM32.3869 107.555L37.1498 116.673L38.9226 115.747L34.1596 106.629L32.3869 107.555ZM37.3988 115.44L34.403 117.918L35.6777 119.459L38.6736 116.981L37.3988 115.44ZM35.9267 118.225L31.1638 109.107L29.391 110.033L34.154 119.151L35.9267 118.225ZM29.64 108.799L27.4347 110.624L28.7095 112.165L30.9148 110.34L29.64 108.799ZM28.9688 110.951L28.3465 109.691L26.5531 110.576L27.1754 111.837L28.9688 110.951ZM28.0872 110.904L35.5075 104.766L34.2327 103.225L26.8124 109.363L28.0872 110.904ZM33.979 104.449L34.6152 105.698L36.3974 104.791L35.7612 103.542L33.979 104.449ZM44.2139 96.2661L43.5766 95.4956L42.9526 96.0117L43.3277 96.7294L44.2139 96.2661ZM50.0531 91.436L50.9384 90.971L50.3653 89.8799L49.4157 90.6654L50.0531 91.436ZM50.7031 92.6736L51.3405 93.4442L51.9657 92.927L51.5884 92.2087L50.7031 92.6736ZM47.8737 95.0141L47.2363 94.2436L46.6154 94.7572L46.9853 95.4731L47.8737 95.0141ZM49.5055 98.1729L48.617 98.6318L49.1866 99.7344L50.1429 98.9434L49.5055 98.1729ZM51.8772 96.211L52.7638 95.7484L52.1921 94.6527L51.2398 95.4404L51.8772 96.211ZM52.5158 97.4348L53.1532 98.2053L53.7767 97.6895L53.4023 96.9722L52.5158 97.4348ZM50.144 99.3967L49.5067 98.6261L48.8841 99.1411L49.2568 99.8579L50.144 99.3967ZM51.9613 102.893L51.074 103.354L51.6449 104.452L52.5987 103.663L51.9613 102.893ZM54.7907 100.552L55.6689 100.074L55.0884 99.0079L54.1533 99.7815L54.7907 100.552ZM55.4661 101.792L56.1035 102.563L56.7384 102.037L56.3443 101.314L55.4661 101.792ZM49.6269 106.622L48.7407 107.085L49.3128 108.18L50.2643 107.393L49.6269 106.622ZM44.8513 97.0367L50.6905 92.2065L49.4157 90.6654L43.5766 95.4956L44.8513 97.0367ZM49.1678 91.9009L49.8178 93.1386L51.5884 92.2087L50.9384 90.971L49.1678 91.9009ZM50.0657 91.9031L47.2363 94.2436L48.5111 95.7847L51.3405 93.4442L50.0657 91.9031ZM46.9853 95.4731L48.617 98.6318L50.3939 97.7139L48.7622 94.5552L46.9853 95.4731ZM50.1429 98.9434L52.5146 96.9815L51.2398 95.4404L48.8681 97.4023L50.1429 98.9434ZM50.9906 96.6736L51.6292 97.8974L53.4023 96.9722L52.7638 95.7484L50.9906 96.6736ZM51.8784 96.6642L49.5067 98.6261L50.7814 100.167L53.1532 98.2053L51.8784 96.6642ZM49.2568 99.8579L51.074 103.354L52.8486 102.431L51.0313 98.9354L49.2568 99.8579ZM52.5987 103.663L55.4281 101.323L54.1533 99.7815L51.3239 102.122L52.5987 103.663ZM53.9125 101.03L54.5879 102.27L56.3443 101.314L55.6689 100.074L53.9125 101.03ZM54.8287 101.022L48.9895 105.852L50.2643 107.393L56.1035 102.563L54.8287 101.022ZM50.5132 106.159L45.1002 95.8029L43.3277 96.7294L48.7407 107.085L50.5132 106.159ZM72.1034 86.7682L73.0114 87.187L73.2176 86.7401L72.9892 86.3042L72.1034 86.7682ZM71.6575 87.6977L72.5447 88.159L72.5489 88.151L72.5529 88.1429L71.6575 87.6977ZM71.1103 88.6176L71.9247 89.1978L71.9336 89.1853L71.9422 89.1724L71.1103 88.6176ZM70.344 89.5551L69.6067 88.8796L69.604 88.8824L70.344 89.5551ZM65.774 92.0506L65.7704 93.0506L65.7771 93.0506L65.774 92.0506ZM61.0836 87.7077L62.0221 87.3624L62.0206 87.3583L61.0836 87.7077ZM60.6758 85.125L61.6743 85.1801L61.6748 85.1708L60.6758 85.125ZM64.4901 79.4002L64.9921 80.265L64.9959 80.2628L64.4901 79.4002ZM65.5891 78.8649L65.9404 79.8011L65.9594 79.794L65.9782 79.7861L65.5891 78.8649ZM66.5536 78.5342L66.7962 79.5043L66.8041 79.5023L66.812 79.5002L66.5536 78.5342ZM67.3909 78.3321L68.2686 77.8528L67.9126 77.201L67.1858 77.3534L67.3909 78.3321ZM69.0256 81.3249L69.663 82.0954L70.2987 81.5696L69.9032 80.8455L69.0256 81.3249ZM66.5291 83.3901L65.6989 83.9476L66.315 84.8649L67.1665 84.1606L66.5291 83.3901ZM66.2585 83.0065L65.4149 83.5434L65.4315 83.5695L65.4497 83.5946L66.2585 83.0065ZM65.933 82.5283L66.7418 81.9402L66.7396 81.9372L65.933 82.5283ZM65.0658 81.4235L64.3561 82.128L64.3625 82.1344L65.0658 81.4235ZM64.3917 81.1168L64.3639 82.1164L64.4294 82.1182L64.4946 82.1115L64.3917 81.1168ZM63.5929 82.128L64.5884 82.2221L64.5884 82.2221L63.5929 82.128ZM63.7198 83.3545L64.6914 83.1178L64.6887 83.1072L63.7198 83.3545ZM64.2216 84.8083L63.3044 85.2068L63.3044 85.2068L64.2216 84.8083ZM64.9719 86.3367L64.0953 86.8178L64.0994 86.8253L64.1036 86.8326L64.9719 86.3367ZM65.8357 87.748L64.9995 88.2964L65.0055 88.3056L65.0117 88.3147L65.8357 87.748ZM66.9873 89.2249L67.7137 88.5376L67.7137 88.5376L66.9873 89.2249ZM67.4032 89.5582L66.8919 90.4177L66.892 90.4177L67.4032 89.5582ZM67.8866 89.719L67.7925 90.7146L67.8162 90.7168L67.8399 90.7179L67.8866 89.719ZM68.7998 88.3096L69.7991 88.2703L69.7984 88.2579L68.7998 88.3096ZM67.9238 85.8104L67.2865 85.0399L66.6683 85.5512L67.0334 86.2655L67.9238 85.8104ZM70.4897 83.6879L71.3756 83.2239L70.803 82.131L69.8523 82.9174L70.4897 83.6879ZM71.1953 86.3494C71.0603 86.6421 70.9159 86.9431 70.7621 87.2524L72.5529 88.1429C72.7148 87.8173 72.8677 87.4986 73.0114 87.187L71.1953 86.3494ZM70.7702 87.2364C70.6324 87.5015 70.4689 87.7769 70.2783 88.0627L71.9422 89.1724C72.1687 88.8328 72.37 88.495 72.5447 88.159L70.7702 87.2364ZM70.2958 88.0373C70.107 88.3024 69.8782 88.5832 69.6067 88.8796L71.0813 90.2306C71.3991 89.8838 71.6811 89.5396 71.9247 89.1978L70.2958 88.0373ZM69.604 88.8824C69.3557 89.1556 69.0545 89.4408 68.696 89.7373L69.9708 91.2784C70.389 90.9324 70.7615 90.5825 71.084 90.2277L69.604 88.8824ZM68.696 89.7373C67.5622 90.6753 66.5932 91.048 65.7708 91.0506L65.7771 93.0506C67.2227 93.0461 68.6266 92.3903 69.9708 91.2784L68.696 89.7373ZM65.7776 91.0506C65.0723 91.0481 64.2282 90.6463 63.2513 89.4653L61.7102 90.7401C62.875 92.1482 64.2264 93.045 65.7704 93.0506L65.7776 91.0506ZM63.2513 89.4653C62.6984 88.7969 62.292 88.0962 62.0221 87.3624L60.1451 88.053C60.4989 89.0147 61.0241 89.9106 61.7102 90.7401L63.2513 89.4653ZM62.0206 87.3583C61.7464 86.6231 61.6346 85.8997 61.6743 85.1801L59.6773 85.0699C59.6216 86.08 59.7817 87.0783 60.1466 88.0571L62.0206 87.3583ZM61.6748 85.1708C61.7078 84.45 61.9005 83.7333 62.269 83.0135L60.4887 82.1022C59.9999 83.0571 59.7239 84.0518 59.6769 85.0792L61.6748 85.1708ZM62.269 83.0135C62.6252 82.3176 63.1747 81.6459 63.9491 81.0053L62.6743 79.4643C61.7288 80.2464 60.9897 81.1234 60.4887 82.1022L62.269 83.0135ZM63.9491 81.0053C64.3218 80.697 64.6695 80.4523 64.9921 80.265L63.988 78.5353C63.5531 78.7878 63.1152 79.0995 62.6743 79.4643L63.9491 81.0053ZM64.9959 80.2628C65.345 80.0581 65.6595 79.9065 65.9404 79.8011L65.2377 77.9286C64.8293 78.0819 64.4112 78.2872 63.9842 78.5375L64.9959 80.2628ZM65.9782 79.7861C66.2872 79.6555 66.5592 79.5636 66.7962 79.5043L66.311 77.5641C65.9544 77.6532 65.5834 77.7817 65.2 77.9437L65.9782 79.7861ZM66.812 79.5002C67.1042 79.4221 67.3653 79.3592 67.5961 79.3108L67.1858 77.3534C66.9123 77.4107 66.6151 77.4826 66.2952 77.5681L66.812 79.5002ZM66.5133 78.8115L68.148 81.8043L69.9032 80.8455L68.2686 77.8528L66.5133 78.8115ZM68.3882 80.5544L65.8917 82.6195L67.1665 84.1606L69.663 82.0954L68.3882 80.5544ZM67.3592 82.8325C67.2822 82.7179 67.184 82.5789 67.0673 82.4184L65.4497 83.5946C65.5593 83.7453 65.6414 83.862 65.6989 83.9476L67.3592 82.8325ZM67.1022 82.4696C66.9873 82.289 66.8671 82.1126 66.7418 81.9402L65.1242 83.1163C65.2251 83.2551 65.322 83.3975 65.4149 83.5434L67.1022 82.4696ZM66.7396 81.9372C66.6195 81.7733 66.5033 81.6141 66.3909 81.4595L64.7733 82.6357C64.8872 82.7923 65.0049 82.9535 65.1263 83.1193L66.7396 81.9372ZM66.3909 81.4595C66.2705 81.2939 66.1586 81.1474 66.0567 81.0243L64.5157 82.299C64.5821 82.3793 64.6674 82.4901 64.7733 82.6357L66.3909 81.4595ZM66.0567 81.0243C65.9698 80.9192 65.8728 80.8151 65.7691 80.7126L64.3625 82.1344C64.4303 82.2014 64.4802 82.2562 64.5157 82.299L66.0567 81.0243ZM65.7755 80.7189C65.6157 80.558 65.4349 80.421 65.2342 80.3116L64.2768 82.0675C64.3032 82.0819 64.3292 82.1009 64.3562 82.128L65.7755 80.7189ZM65.2342 80.3116C64.9423 80.1524 64.6181 80.088 64.2887 80.1221L64.4946 82.1115C64.4643 82.1146 64.4259 82.1141 64.3834 82.1056C64.3408 82.0971 64.3046 82.0827 64.2768 82.0675L65.2342 80.3116ZM64.4194 80.1172C63.9816 80.1051 63.6247 80.2899 63.3688 80.5016L64.6436 82.0427C64.6466 82.0402 64.5467 82.1215 64.3639 82.1164L64.4194 80.1172ZM63.3688 80.5016C62.8847 80.9021 62.6522 81.4537 62.5973 82.0338L64.5884 82.2221C64.5968 82.1339 64.6142 82.0885 64.6231 82.0701C64.6304 82.0549 64.636 82.049 64.6436 82.0427L63.3688 80.5016ZM62.5973 82.0338C62.55 82.5347 62.6133 83.0631 62.7509 83.6019L64.6887 83.1072C64.5899 82.7202 64.5687 82.4308 64.5884 82.2221L62.5973 82.0338ZM62.7482 83.5912C62.8746 84.1101 63.0621 84.6491 63.3044 85.2068L65.1387 84.4098C64.933 83.9364 64.786 83.5063 64.6914 83.1178L62.7482 83.5912ZM63.3044 85.2068C63.5409 85.751 63.8046 86.2881 64.0953 86.8178L65.8486 85.8556C65.5868 85.3785 65.3502 84.8966 65.1387 84.4098L63.3044 85.2068ZM64.1036 86.8326C64.3913 87.3364 64.6899 87.8244 64.9995 88.2964L66.6719 87.1996C66.3855 86.7629 66.1083 86.31 65.8403 85.8408L64.1036 86.8326ZM65.0117 88.3147C65.3306 88.7783 65.6322 89.1838 65.916 89.527L67.4571 88.2522C67.2209 87.9666 66.9552 87.611 66.6596 87.1813L65.0117 88.3147ZM65.916 89.527C66.0118 89.6427 66.1284 89.7721 66.2608 89.9121L67.7137 88.5376C67.5982 88.4156 67.5143 88.3214 67.4571 88.2522L65.916 89.527ZM66.2608 89.9121C66.4475 90.1094 66.6584 90.2787 66.8919 90.4177L67.9145 88.6988C67.8414 88.6553 67.775 88.6024 67.7137 88.5376L66.2608 89.9121ZM66.892 90.4177C67.1658 90.5806 67.4686 90.684 67.7925 90.7146L67.9808 88.7235C67.9668 88.7221 67.9472 88.7183 67.9145 88.6988L66.892 90.4177ZM67.8399 90.7179C68.3167 90.7402 68.7254 90.5566 69.041 90.2955L67.7662 88.7545C67.754 88.7646 67.7642 88.7533 67.7981 88.7405C67.8349 88.7267 67.8825 88.7177 67.9333 88.7201L67.8399 90.7179ZM69.041 90.2955C69.6753 89.7708 69.827 88.9826 69.799 88.2703L67.8005 88.3488C67.8087 88.5554 67.7859 88.6749 67.7668 88.7334C67.7508 88.7827 67.7432 88.7735 67.7662 88.7545L69.041 90.2955ZM69.7984 88.2579C69.7567 87.4507 69.3775 86.4574 68.8143 85.3554L67.0334 86.2655C67.5778 87.3308 67.7826 88.0035 67.8011 88.3613L69.7984 88.2579ZM68.5612 86.581L71.1271 84.4584L69.8523 82.9174L67.2865 85.0399L68.5612 86.581ZM69.6039 84.1519L71.2175 87.2322L72.9892 86.3042L71.3756 83.2239L69.6039 84.1519ZM89.9168 73.2943L90.5542 74.0648L91.1762 73.5503L90.8044 72.8338L89.9168 73.2943ZM86.9209 75.7725L86.0349 76.2362L86.6073 77.3297L87.5583 76.543L86.9209 75.7725ZM84.5062 71.159L85.3922 70.6953L84.8199 69.6018L83.8688 70.3884L84.5062 71.159ZM82.8003 72.5702L82.1629 71.7996L81.5386 72.3161L81.9143 73.0339L82.8003 72.5702ZM85.215 77.1837L85.8523 77.9542L86.4766 77.4378L86.1009 76.72L85.215 77.1837ZM82.2191 79.6619L81.3329 80.1251L81.9049 81.2196L82.8565 80.4324L82.2191 79.6619ZM76.8061 69.3057L76.1687 68.5352L75.5448 69.0513L75.9199 69.769L76.8061 69.3057ZM79.8158 66.8161L80.7026 66.3539L80.1311 65.2575L79.1784 66.0455L79.8158 66.8161ZM82.1641 71.321L81.2773 71.7833L81.8488 72.8796L82.8015 72.0916L82.1641 71.321ZM83.8562 69.9213L84.4936 70.6919L85.1168 70.1763L84.7429 69.4591L83.8562 69.9213ZM81.5079 65.4164L80.8705 64.6458L80.2473 65.1614L80.6212 65.8786L81.5079 65.4164ZM84.5315 62.9152L85.4192 62.4547L84.8486 61.3551L83.8941 62.1447L84.5315 62.9152ZM89.2794 72.5238L86.2835 75.002L87.5583 76.543L90.5542 74.0648L89.2794 72.5238ZM87.8069 75.3088L85.3922 70.6953L83.6202 71.6227L86.0349 76.2362L87.8069 75.3088ZM83.8688 70.3884L82.1629 71.7996L83.4376 73.3407L85.1436 71.9295L83.8688 70.3884ZM81.9143 73.0339L84.329 77.6474L86.1009 76.72L83.6862 72.1065L81.9143 73.0339ZM84.5776 76.4131L81.5817 78.8913L82.8565 80.4324L85.8523 77.9542L84.5776 76.4131ZM83.1053 79.1986L77.6923 68.8425L75.9199 69.769L81.3329 80.1251L83.1053 79.1986ZM77.4435 70.0763L80.4532 67.5866L79.1784 66.0455L76.1687 68.5352L77.4435 70.0763ZM78.9291 67.2783L81.2773 71.7833L83.0508 70.8588L80.7026 66.3539L78.9291 67.2783ZM82.8015 72.0916L84.4936 70.6919L83.2188 69.1508L81.5267 70.5505L82.8015 72.0916ZM84.7429 69.4591L82.3947 64.9541L80.6212 65.8786L82.9694 70.3836L84.7429 69.4591ZM82.1453 66.1869L85.1689 63.6858L83.8941 62.1447L80.8705 64.6458L82.1453 66.1869ZM83.6439 63.3758L89.0292 73.7549L90.8044 72.8338L85.4192 62.4547L83.6439 63.3758Z" fill="black"/>
</g>
<mask id="mask0" mask-type="alpha" maskUnits="userSpaceOnUse" x="0" y="0" width="158" height="123">
<path fill-rule="evenodd" clip-rule="evenodd" d="M134.946 19.0292L158 0H0L47 35.8068L9 122.989L100.617 47.3657L87.5118 33.0001L79.9714 24.7342L91.1001 23.5794L134.946 19.0292ZM122.408 29.3787L98.6405 31.8452L107.566 41.6295L122.408 29.3787Z" fill="white"/>
</mask>
<g mask="url(#mask0)">
<path fill-rule="evenodd" clip-rule="evenodd" d="M134.946 19.0292L158 0H0L47 35.8068L9 122.989L100.617 47.3657L87.5118 33.0001L79.9714 24.7342L91.1001 23.5794L134.946 19.0292ZM122.408 29.3787L98.6405 31.8452L107.566 41.6295L122.408 29.3787Z" fill="#00D1FF"/>
<path d="M158 0L161.819 4.62727L174.694 -6H158V0ZM134.946 19.0292L135.566 24.9972L137.368 24.8101L138.766 23.6565L134.946 19.0292ZM-2.86102e-05 0V-6H-17.7764L-3.63612 4.77272L-2.86102e-05 0ZM47 35.8068L52.5002 38.2042L54.3817 33.8877L50.6361 31.0341L47 35.8068ZM8.99997 122.989L3.49974 120.591L12.8195 127.616L8.99997 122.989ZM100.617 47.3657L104.436 51.993L109.298 47.9797L105.049 43.3221L100.617 47.3657ZM87.5118 33.0001L83.0791 37.0437L87.5118 33.0001ZM79.9714 24.7342L79.3521 18.7663L67.5254 19.9936L75.5387 28.7779L79.9714 24.7342ZM91.1001 23.5794L91.7194 29.5473L91.1001 23.5794ZM122.408 29.3787L126.227 34.006L141.548 21.3603L121.789 23.4108L122.408 29.3787ZM98.6405 31.8452L98.0212 25.8772L86.1945 27.1045L94.2078 35.8888L98.6405 31.8452ZM107.566 41.6295L103.133 45.6732L106.982 49.8918L111.386 46.2568L107.566 41.6295ZM154.181 -4.62727L131.127 14.4019L138.766 23.6565L161.819 4.62727L154.181 -4.62727ZM-2.86102e-05 6H158V-6H-2.86102e-05V6ZM50.6361 31.0341L3.63606 -4.77272L-3.63612 4.77272L43.3639 40.5795L50.6361 31.0341ZM14.5002 125.386L52.5002 38.2042L41.4998 33.4094L3.49974 120.591L14.5002 125.386ZM96.7972 42.7385L5.1805 118.361L12.8195 127.616L104.436 51.993L96.7972 42.7385ZM83.0791 37.0437L96.184 51.4094L105.049 43.3221L91.9445 28.9564L83.0791 37.0437ZM75.5387 28.7779L83.0791 37.0437L91.9445 28.9564L84.4041 20.6906L75.5387 28.7779ZM90.4808 17.6114L79.3521 18.7663L80.5908 30.7022L91.7194 29.5473L90.4808 17.6114ZM134.327 13.0613L90.4808 17.6114L91.7194 29.5473L135.566 24.9972L134.327 13.0613ZM121.789 23.4108L98.0212 25.8772L99.2598 37.8131L123.027 35.3467L121.789 23.4108ZM94.2078 35.8888L103.133 45.6732L111.999 37.5858L103.073 27.8015L94.2078 35.8888ZM118.588 24.7514L103.747 37.0022L111.386 46.2568L126.227 34.006L118.588 24.7514Z" fill="black"/>
<path d="M42.1053 82.2803C41.864 81.9856 41.5578 81.8615 41.1868 81.9079C40.8203 81.9506 40.3078 82.1432 39.6492 82.4857C38.9906 82.8283 38.3989 83.063 37.8741 83.1899C36.7224 83.4667 35.8365 83.2267 35.2165 82.4697C34.6967 81.8351 34.5297 81.0857 34.7155 80.2215C34.9014 79.3573 35.4068 78.5873 36.2318 77.9116C37.1111 77.1912 37.9987 76.8277 38.8946 76.821C39.795 76.8106 40.5292 77.1522 41.0973 77.8457L39.4451 79.1991C39.1852 78.8818 38.852 78.7154 38.4455 78.7C38.0353 78.68 37.6352 78.8297 37.2454 79.149C36.8828 79.446 36.6546 79.7731 36.5608 80.1302C36.4715 80.4835 36.542 80.8007 36.7722 81.0818C36.9801 81.3356 37.2482 81.4455 37.5763 81.4115C37.9044 81.3775 38.452 81.1676 39.219 80.7817C39.9823 80.3913 40.6292 80.1454 41.1598 80.0441C41.6911 79.9345 42.1584 79.9456 42.5617 80.0773C42.9695 80.2053 43.3349 80.4664 43.6579 80.8608C44.2 81.5226 44.3658 82.2844 44.1552 83.1461C43.9409 84.0033 43.3895 84.7958 42.5011 85.5235C41.8982 86.0174 41.272 86.3486 40.6223 86.5171C39.9727 86.6857 39.3605 86.6873 38.7857 86.5219C38.2109 86.3565 37.7434 86.0539 37.3833 85.6143L38.9879 84.2999C39.3299 84.6711 39.7241 84.8519 40.1706 84.8422C40.6133 84.8279 41.0591 84.637 41.5078 84.2694C41.943 83.9129 42.207 83.5603 42.3 83.2115C42.3893 82.8581 42.3244 82.5477 42.1053 82.2803ZM50.6791 77.3932C50.6619 78.3616 50.2068 79.2115 49.3139 79.943C48.5161 80.5965 47.7198 80.8587 46.9248 80.7297C46.1344 80.597 45.3772 80.0887 44.6532 79.2048L40.749 74.4385L42.4013 73.0852L46.2887 77.831C47.0536 78.7648 47.8236 78.9142 48.5987 78.2793C49.401 77.6221 49.7069 76.8906 49.5164 76.0847L45.1889 70.8017L46.8411 69.4483L52.8672 76.8051L51.3102 78.0805L50.6791 77.3932ZM58.0405 66.546C58.9724 67.6838 59.4585 68.8042 59.4987 69.9074C59.5352 71.0061 59.1183 71.9119 58.248 72.6247C57.4412 73.2857 56.578 73.5496 55.6586 73.4165L58.5157 76.9045L56.8635 78.2579L48.5205 68.0727L50.0435 66.8251L50.7242 67.5174C50.7265 66.5308 51.1447 65.6959 51.9787 65.0128C52.8762 64.2776 53.8536 64.0375 54.9107 64.2925C55.9688 64.5393 56.9842 65.2564 57.957 66.444L58.0405 66.546ZM56.2781 67.751C55.6766 67.0167 55.0522 66.5549 54.4048 66.3657C53.762 66.1727 53.1686 66.299 52.6247 66.7445C51.9493 67.2977 51.6926 67.9738 51.8547 68.7727L54.528 72.0363C55.295 72.3624 56.0185 72.2469 56.6984 71.69C57.2242 71.2593 57.4618 70.7125 57.4111 70.0496C57.3612 69.3785 56.9836 68.6123 56.2781 67.751ZM65.8868 60.1189C66.8187 61.2566 67.3048 62.3771 67.345 63.4803C67.3815 64.579 66.9646 65.4847 66.0943 66.1976C65.2875 66.8585 64.4243 67.1225 63.5049 66.9894L66.362 70.4774L64.7098 71.8308L56.3668 61.6456L57.8898 60.398L58.5705 61.0902C58.5728 60.1037 58.991 59.2688 59.825 58.5856C60.7225 57.8505 61.6998 57.6104 62.757 57.8654C63.815 58.1122 64.8304 58.8293 65.8032 60.0169L65.8868 60.1189ZM64.1244 61.3239C63.5229 60.5896 62.8985 60.1278 62.2511 59.9385C61.6083 59.7456 61.0149 59.8718 60.471 60.3174C59.7956 60.8706 59.5389 61.5467 59.701 62.3456L62.3743 65.6092C63.1413 65.9352 63.8648 65.8198 64.5447 65.2629C65.0705 64.8322 65.308 64.2854 65.2574 63.6225C65.2075 62.9513 64.8299 62.1852 64.1244 61.3239ZM72.0002 61.1327L70.348 62.4861L61.7933 52.0425L63.4455 50.6891L72.0002 61.1327ZM75.563 58.2143L73.9108 59.5677L67.8846 52.211L69.5368 50.8576L75.563 58.2143ZM66.2176 50.3839C66.0097 50.1301 65.9164 49.8543 65.9377 49.5567C65.9635 49.2553 66.1259 48.9821 66.4251 48.737C66.7243 48.492 67.0241 48.3865 67.3247 48.4205C67.6253 48.4546 67.8795 48.5985 68.0874 48.8523C68.2916 49.1016 68.3808 49.377 68.355 49.6784C68.3255 49.9752 68.1612 50.2462 67.862 50.4912C67.5629 50.7363 67.2649 50.844 66.968 50.8145C66.672 50.7768 66.4219 50.6332 66.2176 50.3839ZM80.7194 54.2178C79.6723 55.0755 78.5532 55.443 77.3621 55.3204C76.1718 55.1896 75.1274 54.5757 74.2289 53.4788L74.0618 53.2748C73.4603 52.5405 73.0643 51.7704 72.8738 50.9645C72.6841 50.1504 72.7135 49.3727 72.9621 48.6313C73.2107 47.8899 73.65 47.2611 74.2801 46.745C75.2818 45.9245 76.3164 45.611 77.3839 45.8045C78.4559 45.9944 79.4709 46.6741 80.4288 47.8435L80.9746 48.5098L76.1676 52.4474C76.715 53.014 77.3103 53.3292 77.9534 53.3932C78.6011 53.4534 79.1947 53.2626 79.7341 52.8208C80.4911 52.2007 80.8569 51.3898 80.8316 50.388L82.4185 50.5083C82.484 51.1893 82.37 51.8546 82.0764 52.5041C81.7836 53.1453 81.3313 53.7165 80.7194 54.2178ZM75.3593 48.0764C74.906 48.4477 74.6688 48.9071 74.6477 49.4546C74.6311 49.9984 74.8164 50.5852 75.2034 51.2149L78.3514 48.6362L78.2512 48.5139C77.762 47.9906 77.273 47.6942 76.7845 47.6248C76.2922 47.5509 75.8171 47.7014 75.3593 48.0764ZM87.3336 45.2324C87.0922 44.9378 86.7861 44.8137 86.415 44.8601C86.0486 44.9027 85.536 45.0954 84.8774 45.4379C84.2188 45.7805 83.6271 46.0152 83.1024 46.142C81.9507 46.4189 81.0648 46.1788 80.4447 45.4219C79.9249 44.7873 79.758 44.0379 79.9438 43.1737C80.1297 42.3095 80.6351 41.5395 81.46 40.8637C82.3394 40.1434 83.227 39.7799 84.1229 39.7732C85.0232 39.7628 85.7575 40.1044 86.3255 40.7979L84.6733 42.1512C84.4134 41.8339 84.0802 41.6676 83.6737 41.6521C83.2635 41.6322 82.8635 41.7819 82.4737 42.1012C82.111 42.3982 81.8828 42.7253 81.789 43.0823C81.6998 43.4357 81.7703 43.7529 82.0005 44.0339C82.2084 44.2878 82.4764 44.3977 82.8046 44.3637C83.1327 44.3297 83.6803 44.1198 84.4473 43.7338C85.2106 43.3434 85.8575 43.0975 86.388 42.9962C86.9194 42.8867 87.3867 42.8978 87.7899 43.0295C88.1977 43.1574 88.5632 43.4186 88.8862 43.813C89.4283 44.4747 89.594 45.2365 89.3834 46.0983C89.1691 46.9555 88.6178 47.748 87.7293 48.4757C87.1265 48.9695 86.5002 49.3007 85.8506 49.4693C85.201 49.6379 84.5887 49.6395 84.014 49.4741C83.4392 49.3086 82.9717 49.0061 82.6115 48.5664L84.2161 47.252C84.5581 47.6233 84.9524 47.8041 85.3988 47.7943C85.8416 47.78 86.2873 47.5891 86.7361 47.2215C87.1712 46.8651 87.4353 46.5125 87.5283 46.1636C87.6175 45.8103 87.5526 45.4999 87.3336 45.2324Z" fill="black"/>
</g>
</svg>
